# xmcd
#
# Track frame offsets: 
#        187
#        21585
#        39962
#        55962
#        70775
#        84302
#        98042
#        112837
#        134195
#        169512
#        192952
#        211045
#        227825
#        246912
#        257217
#        274517
#        293502
#
# Disc length: 4564 seconds
#
# Revision: 42
# Processed by: cddbd v1.5.2PL0 Copyright (c) Steve Scherf et al.
# Submitted via: ExactAudioCopy v0.99pb4
#
DISCID=ea11d211
DTITLE=Sundtrack - Saturday Night Fever
DYEAR=1977
DGENRE=Disco
TTITLE0=Bee Gees - Stayin' Alive
TTITLE1=Bee Gees - How Deep Is Your Love
TTITLE2=Bee Gees - Night Fever
TTITLE3=Bee Gees - More Than A Woman
TTITLE4=Yvonne Elliman - If I Can't Have You
TTITLE5=Walter Murphy - A Fifth Of Beethoven
TTITLE6=Tavares - More Than A Woman
TTITLE7=David Shire - Manhattan Skyline
TTITLE8=Ralph McDonald - Calypso Breakdown
TTITLE9=David Shire - Night On Disco Mountain
TTITLE10=Kool And The Gang - Open Sesame
TTITLE11=Bee Gees - Jive Talkin'
TTITLE12=Bee Gees - You Should Be Dancing
TTITLE13=K.C. And The Sunshine Band - Boogie Shoes
TTITLE14=David Shire - Salsation
TTITLE15=M.F.S.B. - K-Jee
TTITLE16=The Trammps - Disco Inferno
EXTD=Recorded 1977/Digitally Remastered YEAR: 1977
EXTT0=
EXTT1=
EXTT2=
EXTT3=
EXTT4=
EXTT5=
EXTT6=
EXTT7=
EXTT8=
EXTT9=
EXTT10=
EXTT11=
EXTT12=
EXTT13=
EXTT14=
EXTT15=
EXTT16=
PLAYORDER=
